# xmcd
#
# Track frame offsets: 
#        150
#        13566
#        26054
#        40141
#        59333
#        71767
#        84750
#        101764
#        109810
#        124457
#        136282
#        160154
#
# Disc length: 2163 seconds
#
# Revision: 0
# Processed by: cddbd v1.5.2PL0 Copyright (c) Steve Scherf et al.
# Submitted via: ExactAudioCopyFreeDBPlugin 1.0
#
DISCID=9f08710c
DTITLE=David Laibman and Eric Shoenberg - The New Ragtime Guitar
DYEAR=1971
DGENRE=Blues
TTITLE0=Maple Leaf Rag
TTITLE1=Hot Chocolate Rag
TTITLE2=Stoptime Rag
TTITLE3=Red Carpet Rag
TTITLE4=Ragtime Oriole
TTITLE5=Wedding Of The Painted Dolls
TTITLE6=Kitten On The Keys
TTITLE7=At A Georgia Camp Meeting
TTITLE8=Temptation Rag
TTITLE9=Eccentricity
TTITLE10=Dill Pickle Rag
TTITLE11=Original Liner Notes
EXTD=
EXTT0=
EXTT1=
EXTT2=
EXTT3=
EXTT4=
EXTT5=
EXTT6=
EXTT7=
EXTT8=
EXTT9=
EXTT10=
EXTT11=
PLAYORDER=
